<?xml version="1.0" encoding="UTF-8" standalone="no"?>
<!-- Created with Inkscape (http://www.inkscape.org/) -->

<svg
   width="90.413353mm"
   height="81.768837mm"
   viewBox="0 0 90.413353 81.768837"
   version="1.1"
   id="svg5"
   xmlns="http://www.w3.org/2000/svg"
   xmlns:svg="http://www.w3.org/2000/svg">
  <defs
     id="defs2" />
  <g
     id="layer1"
     transform="translate(-69.997171,-17.117883)">
    <path
       id="path2203"
       style="opacity:1;fill:none;stroke:#ffffff;stroke-width:3;stroke-linecap:round;stroke-linejoin:round;stroke-dasharray:none"
       d="m 71.758141,61.823006 c 1.960869,20.166173 18.898048,35.551823 39.150069,35.563723 20.78118,-0.008 37.97529,-16.17843 39.26685,-36.929014 m -6.4764,-24.258374 a 4.7812405,20.118465 75 0 0 -5.49875,1.2749 4.7812405,20.118465 75 0 0 -16.2419,6.844028 15.191861,17.650661 45 0 0 -8.66562,-2.77916 15.191861,17.650661 45 0 0 -13.13977,5.72471 15.191861,17.650661 45 0 0 -1.738905,23.22339 15.191861,17.650661 45 0 0 6.529825,3.58325 c -0.002,0.001 -0.003,0.002 -0.005,0.004 -8.576715,6.36336 -13.223085,18.22675 -13.259435,18.31978 m 41.002435,-1.5865 c 4.46695,-14.45616 -8.41962,-25.28159 -8.41962,-25.28159 l -0.002,5.1e-4 a 15.191861,17.650661 45 0 0 1.63091,-16.47703 4.7812405,20.118465 75 0 0 14.78411,-2.33835 4.7812405,20.118465 75 0 0 7.1955,-2.28909 m 0,0 a 4.7812405,20.118465 75 0 0 10.99977,-7.536668 4.7812405,20.118465 75 0 0 -5.63842,-1.75287 l 2.7e-4,-3.9e-4 v 0 a 4.7812405,20.118465 75 0 0 -9.5334,1.06708 M 110.89012,18.617891 A 39.392689,39.392689 0 0 0 71.497175,58.010319 39.392689,39.392689 0 0 0 91.68044,92.382899 c 0.0043,-0.01102 0.07078,-0.18063 0.210323,-0.50901 0.07197,-0.16937 0.161781,-0.3768 0.269234,-0.61805 0.107452,-0.24126 0.232572,-0.51653 0.375171,-0.82114 0.142598,-0.30461 0.302665,-0.63845 0.480074,-0.99787 0.177408,-0.35943 0.372061,-0.74409 0.583944,-1.14981 0.211882,-0.40571 0.440758,-0.83242 0.686779,-1.27589 0.246022,-0.44347 0.509275,-0.90397 0.789099,-1.37666 0.139913,-0.23634 0.283716,-0.47573 0.432015,-0.71778 0.1483,-0.24205 0.300691,-0.4866 0.457337,-0.73329 0.156645,-0.24669 0.317708,-0.49543 0.482658,-0.74569 0.164949,-0.25026 0.333734,-0.50223 0.506945,-0.75499 0.173212,-0.25277 0.350837,-0.50647 0.532268,-0.76068 0.181431,-0.25421 0.366946,-0.50868 0.556555,-0.76326 0.189609,-0.25458 0.383098,-0.50938 0.580843,-0.76326 0.197745,-0.25389 0.399809,-0.50701 0.605648,-0.75913 0.205839,-0.25212 0.415528,-0.50311 0.629419,-0.75241 0.213888,-0.24929 0.431808,-0.49667 0.653708,-0.74207 0.2219,-0.2454 0.44761,-0.48872 0.67748,-0.72916 0.22986,-0.24044 0.46397,-0.4782 0.70176,-0.71261 0.2378,-0.23442 0.47934,-0.46567 0.72502,-0.69299 0.24568,-0.22732 0.49527,-0.45056 0.74879,-0.66972 0.25352,-0.21916 0.51125,-0.43396 0.77257,-0.64389 0.26132,-0.20993 0.52622,-0.41531 0.7953,-0.61495 0.002,-0.002 0.004,-0.0031 0.005,-0.0041 a 15.191861,17.650661 45 0 1 -1.47433,-0.4284 15.191861,17.650661 45 0 1 -1.40353,-0.57878 15.191861,17.650661 45 0 1 -1.31827,-0.72398 15.191861,17.650661 45 0 1 -1.221113,-0.86093 15.191861,17.650661 45 0 1 -1.112594,-0.991158 15.191861,17.650661 45 0 1 -1.054199,-1.191142 15.191861,17.650661 45 0 1 -0.906405,-1.314648 15.191861,17.650661 45 0 1 -0.747758,-1.424203 15.191861,17.650661 45 0 1 -0.581876,-1.518253 15.191861,17.650661 45 0 1 -0.408761,-1.594735 15.191861,17.650661 45 0 1 -0.230994,-1.654679 15.191861,17.650661 45 0 1 -0.05168,-1.696021 15.191861,17.650661 45 0 1 0.128674,-1.718758 15.191861,17.650661 45 0 1 0.307475,-1.722892 15.191861,17.650661 45 0 1 0.483175,-1.708423 15.191861,17.650661 45 0 1 0.653707,-1.674316 15.191861,17.650661 45 0 1 0.816487,-1.62264 15.191861,17.650661 45 0 1 0.971,-1.552877 15.191861,17.650661 45 0 1 1.114661,-1.466061 15.191861,17.650661 45 0 1 1.245401,-1.363741 15.191861,17.650661 45 0 1 1.39578,-1.272273 15.191861,17.650661 45 0 1 1.50275,-1.134815 15.191861,17.650661 45 0 1 1.59267,-0.984436 15.191861,17.650661 45 0 1 1.6645,-0.822172 15.191861,17.650661 45 0 1 1.71669,-0.650606 15.191861,17.650661 45 0 1 1.74976,-0.472323 15.191861,17.650661 45 0 1 1.76269,-0.287838 15.191861,17.650661 45 0 1 1.75493,-0.100252 15.191861,17.650661 45 0 1 1.5906,0.07751 15.191861,17.650661 45 0 1 1.55132,0.236161 15.191861,17.650661 45 0 1 1.49759,0.392741 15.191861,17.650661 45 0 1 1.42885,0.545703 15.191861,17.650661 45 0 1 1.34617,0.692981 15.191861,17.650661 45 0 1 1.25109,0.834058 4.7812405,20.118465 75 0 1 0.89813,-0.639238 4.7812405,20.118465 75 0 1 1.04904,-0.653707 4.7812405,20.118465 75 0 1 1.19114,-0.661975 4.7812405,20.118465 75 0 1 1.32136,-0.665075 4.7812405,20.118465 75 0 1 1.44074,-0.660942 4.7812405,20.118465 75 0 1 1.54616,-0.65164 4.7812405,20.118465 75 0 1 1.63763,-0.63562 4.7812405,20.118465 75 0 1 1.71411,-0.614949 4.7812405,20.118465 75 0 1 1.7756,-0.587562 4.7812405,20.118465 75 0 1 1.82004,-0.555004 4.7812405,20.118465 75 0 1 1.84795,-0.518315 4.7812405,20.118465 75 0 1 1.8402,-0.470772 4.7812405,20.118465 75 0 1 1.83451,-0.425297 4.7812405,20.118465 75 0 1 1.81281,-0.376205 4.7812405,20.118465 75 0 1 0.0114,-0.0021 39.392689,39.392689 0 0 0 -32.80368,-17.586007 z m 36.97293,25.807728 a 4.7812405,20.118465 75 0 1 -1.60455,0.579292 4.7812405,20.118465 75 0 1 -1.82056,0.606165 4.7812405,20.118465 75 0 1 -1.86862,0.571541 4.7812405,20.118465 75 0 1 -1.89911,0.532784 4.7812405,20.118465 75 0 1 -1.80144,0.461471 4.7812405,20.118465 75 0 1 -1.79679,0.417545 4.7812405,20.118465 75 0 1 -1.77663,0.371037 4.7812405,20.118465 75 0 1 -1.74098,0.320394 4.7812405,20.118465 75 0 1 -1.69085,0.267167 4.7812405,20.118465 75 0 1 -1.62574,0.21239 4.7812405,20.118465 75 0 1 -1.54668,0.15503 4.7812405,20.118465 75 0 1 -1.45469,0.09612 4.7812405,20.118465 75 0 1 -1.35031,0.03721 15.191861,17.650661 45 0 1 0.62994,1.496549 15.191861,17.650661 45 0 1 0.45785,1.578715 15.191861,17.650661 45 0 1 0.28061,1.643828 15.191861,17.650661 45 0 1 0.10076,1.689819 15.191861,17.650661 45 0 1 -0.0801,1.718241 15.191861,17.650661 45 0 1 -0.26096,1.727027 15.191861,17.650661 45 0 1 -0.4377,1.717208 15.191861,17.650661 45 0 1 -0.61082,1.688785 15.191861,17.650661 45 0 1 -0.77669,1.641244 15.191861,17.650661 45 0 1 -0.9338,1.575614 l 0.002,-5.17e-4 c 0,0 0.0508,0.04267 0.14418,0.125574 0.0934,0.0829 0.22954,0.206162 0.40153,0.368453 0.17199,0.162292 0.37966,0.363355 0.61546,0.601514 0.2358,0.238159 0.49963,0.513214 0.78445,0.823722 0.14241,0.155254 0.29046,0.319278 0.44235,0.49196 0.15189,0.172681 0.30763,0.353967 0.46716,0.543636 0.15952,0.189669 0.32251,0.388062 0.48782,0.594279 0.16531,0.206217 0.33305,0.42053 0.5023,0.642855 0.16924,0.222325 0.34026,0.452404 0.51159,0.690397 0.17134,0.237993 0.34313,0.483684 0.5147,0.736906 0.17158,0.25322 0.34267,0.51437 0.51263,0.78238 0.16997,0.26801 0.33889,0.54291 0.5054,0.82527 0.1665,0.28236 0.33076,0.5719 0.49196,0.86817 0.1612,0.29627 0.31931,0.59925 0.47335,0.90899 0.15405,0.30973 0.30403,0.62653 0.44907,0.94929 0.14504,0.32277 0.28491,0.65167 0.4191,0.98702 0.13418,0.33536 0.26247,0.67672 0.38395,1.02423 0.0607,0.17375 0.12003,0.34936 0.17725,0.52606 0.0572,0.17671 0.11242,0.35473 0.16588,0.53434 0.0535,0.17961 0.10503,0.36067 0.15452,0.54312 0.0495,0.18245 0.0968,0.36614 0.14211,0.55139 0.0453,0.18524 0.0884,0.37219 0.12919,0.56017 0.0408,0.18798 0.0796,0.37727 0.11575,0.56792 0.0361,0.19066 0.0695,0.3824 0.10077,0.57568 0.0312,0.19328 0.0602,0.38809 0.0863,0.58394 0.0261,0.19585 0.0496,0.39281 0.0703,0.59118 0.0207,0.19837 0.0386,0.3981 0.0537,0.59893 0.0151,0.20083 0.0274,0.40293 0.0367,0.60616 0.009,0.20324 0.0159,0.4073 0.0191,0.61289 0.003,0.20558 0.003,0.41275 0,0.62063 -0.003,0.20788 -0.01,0.41672 -0.0191,0.62684 -0.01,0.21011 -0.0224,0.42125 -0.0388,0.63355 -0.0164,0.2123 -0.0361,0.42584 -0.0594,0.64027 -0.0233,0.21443 -0.05,0.42996 -0.0806,0.64647 -0.0306,0.21651 -0.0648,0.43363 -0.10283,0.65216 -0.038,0.21853 -0.0799,0.43838 -0.12558,0.65887 -0.0457,0.2205 -0.0952,0.44164 -0.14883,0.66405 -0.0536,0.2224 -0.11136,0.44598 -0.17311,0.67024 -0.0597,0.2167 -0.12372,0.43429 -0.19121,0.65267 a 39.392689,39.392689 0 0 0 17.60669,-32.80213 39.392689,39.392689 0 0 0 -2.4195,-13.5847 z" />
  </g>
</svg>
